Coordinates
version=1
nRows=49
nColumns=12
inDegrees=yes

Units are S.I. units (second, meters, Newtons, ...)
Angles are in degrees

endheader
time	SC_y	SC_z	SC_x	AC_y	AC_z	AC_x	GH_y	GH_z	GH_yy	EL_x	PS_y
       0.0               -20.8          33.86          48.97          46.28         -6.307          9.113         -131.5         -17.47         -127.7          57.63          37.11
   0.00475               -20.8          33.85          48.97          46.28         -6.306           9.11         -131.5         -17.47         -127.7          57.63          37.13
    0.0095               -20.8          33.85          48.98          46.28         -6.304          9.107         -131.4         -17.46         -127.6          57.62          37.14
   0.01425               -20.8          33.85          48.98          46.29         -6.303          9.103         -131.4         -17.45         -127.6          57.61          37.16
     0.019               -20.8          33.84          48.98          46.29         -6.302          9.099         -131.3         -17.44         -127.6           57.6          37.18
   0.02375               -20.8          33.84          48.98          46.29           -6.3          9.095         -131.3         -17.43         -127.6          57.59           37.2
    0.0285              -20.79          33.83          48.98          46.29         -6.298           9.09         -131.2         -17.42         -127.6          57.58          37.22
   0.03325              -20.79          33.83          48.98          46.29         -6.297          9.085         -131.1         -17.41         -127.6          57.57          37.24
     0.038              -20.79          33.83          48.99          46.29         -6.295           9.08         -131.1          -17.4         -127.6          57.56          37.26
   0.04275              -20.79          33.82          48.99           46.3         -6.293          9.074         -131.0         -17.39         -127.6          57.55          37.29
    0.0475              -20.79          33.82          48.99           46.3         -6.291          9.068         -130.9         -17.38         -127.6          57.54          37.32
   0.05225              -20.78          33.81          48.99           46.3         -6.288          9.062         -130.8         -17.36         -127.6          57.52          37.34
     0.057              -20.78           33.8           49.0           46.3         -6.286          9.055         -130.7         -17.35         -127.5          57.51          37.38
   0.06175              -20.78           33.8           49.0          46.31         -6.283          9.047         -130.6         -17.33         -127.5          57.49          37.41
    0.0665              -20.78          33.79           49.0          46.31          -6.28          9.039         -130.5         -17.31         -127.5          57.47          37.45
   0.07125              -20.77          33.78           49.0          46.31         -6.277           9.03         -130.4         -17.29         -127.5          57.45          37.49
     0.076              -20.77          33.77          49.01          46.32         -6.274          9.021         -130.3         -17.27         -127.5          57.43          37.53
   0.08075              -20.77          33.76          49.01          46.32          -6.27           9.01         -130.1         -17.25         -127.5          57.41          37.58
    0.0855              -20.76          33.75          49.02          46.33         -6.266          8.999         -130.0         -17.23         -127.4          57.38          37.63
   0.09025              -20.76          33.74          49.02          46.33         -6.261          8.986         -129.8          -17.2         -127.4          57.36          37.68
     0.095              -20.75          33.73          49.03          46.34         -6.256          8.973         -129.6         -17.17         -127.4          57.33          37.74
   0.09975              -20.75          33.72          49.03          46.34         -6.251          8.957         -129.4         -17.14         -127.3          57.29          37.81
    0.1045              -20.74           33.7          49.04          46.35         -6.245          8.941         -129.2          -17.1         -127.3          57.26          37.89
    0.1092              -20.74          33.69          49.05          46.36         -6.238          8.922         -128.9         -17.06         -127.3          57.22          37.97
     0.114              -20.73          33.67          49.05          46.37         -6.231          8.902         -128.7         -17.02         -127.2          57.17          38.06
    0.1187              -20.72          33.65          49.06          46.38         -6.223          8.879         -128.3         -16.97         -127.2          57.12          38.16
    0.1235              -20.72          33.63          49.07          46.39         -6.213          8.853         -128.0         -16.91         -127.1          57.06          38.28
    0.1282              -20.71           33.6          49.08           46.4         -6.203          8.824         -127.6         -16.85         -127.1           57.0          38.41
     0.133               -20.7          33.57           49.1          46.41         -6.191          8.791         -127.2         -16.78         -127.0          56.93          38.55
    0.1377              -20.68          33.54          49.11          46.43         -6.178          8.754         -126.7          -16.7         -126.9          56.85          38.72
    0.1425              -20.67           33.5          49.13          46.45         -6.163          8.712         -126.1         -16.61         -126.8          56.76          38.91
    0.1472              -20.65          33.46          49.14          46.47         -6.145          8.663         -125.4          -16.5         -126.7          56.65          39.13
     0.152              -20.63          33.41          49.17          46.49         -6.125          8.607         -124.7         -16.38         -126.6          56.53          39.38
    0.1567              -20.61          33.35          49.19          46.52         -6.102          8.542         -123.8         -16.24         -126.5          56.38          39.67
    0.1615              -20.59          33.29          49.22          46.55         -6.075          8.466         -122.8         -16.08         -126.3          56.22          40.01
    0.1662              -20.56          33.21          49.25          46.58         -6.042          8.376         -121.6         -15.88         -126.1          56.02          40.41
     0.171              -20.52          33.11          49.29          46.63         -6.004          8.269         -120.1         -15.65         -125.9          55.79          40.89
    0.1757              -20.48           33.0          49.34          46.68         -5.958          8.141         -118.4         -15.38         -125.7           55.5          41.46
    0.1805              -20.43          32.86           49.4          46.74         -5.902          7.986         -116.3         -15.04         -125.3          55.17          42.15
    0.1852              -20.37           32.7          49.47          46.82         -5.834          7.796         -113.7         -14.63         -125.0          54.75           43.0
      0.19              -20.29          32.49          49.56          46.92         -5.751          7.562         -110.6         -14.13         -124.5          54.24          44.04
    0.1947              -20.19          32.23          49.67          47.04         -5.646          7.271         -106.6          -13.5         -123.9           53.6          45.35
    0.1995              -20.07          31.91          49.81          47.19         -5.514          6.904         -101.7         -12.71         -123.1           52.8          46.99
    0.2042              -19.92           31.5          49.99          47.38         -5.347          6.437         -95.39          -11.7         -122.2          51.77          49.07
     0.209              -19.72          30.97          50.22          47.63         -5.133          5.839         -87.33         -10.41         -120.9          50.47          51.74
    0.2137              -19.47           30.3          50.51          47.94         -4.858          5.073         -76.99         -8.759         -119.4          48.79          55.17
    0.2185              -19.14          29.43          50.88          48.34         -4.507          4.093         -63.77         -6.647         -117.4          46.64          59.54
    0.2232              -18.74          28.35          51.35          48.85         -4.065          2.862         -47.15         -3.991         -114.8          43.95          65.04
     0.228              -18.24          27.03          51.92          49.47         -3.527          1.361         -26.91        -0.7542         -111.7          40.66          71.75
